<?xml version="1.0" encoding="UTF-8"?>
<!DOCTYPE svg PUBLIC "-//W3C//DTD SVG 1.1//EN" "http://www.w3.org/Graphics/SVG/1.1/DTD/svg11.dtd">
<!-- Creator: CorelDRAW 2020 (64-Bit Evaluation Version) -->
<svg xmlns="http://www.w3.org/2000/svg" xml:space="preserve" width="11.5424in" height="2.15115in" version="1.1" style="shape-rendering:geometricPrecision; text-rendering:geometricPrecision; image-rendering:optimizeQuality; fill-rule:evenodd; clip-rule:evenodd" viewBox="0 0 10289.16 1917.59" 
    xmlns:xlink="http://www.w3.org/1999/xlink" 
    xmlns:xodm="http://www.corel.com/coreldraw/odm/2003">
    <defs>
        <style type="text/css">
            <![CDATA[
    .fil4 {fill:#FEFEFE}
    .fil0 {fill:#FEFEFE}
    .fil1 {fill:#FFF000}
    .fil2 {fill:#E62129}
    .fil3 {fill:#1D4497}
   ]]>
        </style>
    </defs>
    <g id="Layer_x0020_1">
        <metadata id="CorelCorpID_0Corel-Layer"/>
        <g id="_2250423929376">
            <path class="fil0" d="M2883.22 1241.36l480.4 0c11.93,0 20.93,-2.74 26.99,-8.02 6.06,-5.28 11.15,-14.67 14.87,-28.36l18.78 0 0 201.86 -18.78 0c-3.72,-13.69 -8.8,-23.08 -14.87,-28.36 -6.06,-5.29 -15.06,-8.02 -26.99,-8.02l-688.13 0 0 -18.78c13.69,-3.91 23.08,-8.8 28.36,-14.87 5.29,-6.06 8.02,-15.06 8.02,-26.99l0 -661.53c0,-11.93 -2.74,-20.92 -8.02,-26.99 -5.28,-6.06 -14.67,-11.15 -28.36,-14.87l0 -18.78 244.11 0 0 18.78c-13.69,3.52 -23.08,8.22 -28.36,14.67 -5.28,6.26 -8.02,15.26 -8.02,27.19l0 593.07z"/>
            <path class="fil0" d="M2565.15 648.29l0 438.74c0,82.93 -15.26,144.94 -45.77,186.21 -54.96,74.13 -168.61,111.3 -340.94,111.3 -124.6,0 -219.86,-20.15 -285.97,-60.25 -38.53,-23.27 -65.33,-54.96 -80.19,-95.06 -14.48,-39.9 -21.71,-87.24 -21.71,-142.2l0 -438.74c0,-11.93 -2.74,-20.92 -8.02,-26.99 -5.28,-6.06 -14.67,-10.95 -28.36,-14.87l0 -18.78 244.1 0 0 18.78c-13.49,3.52 -22.89,8.42 -28.36,14.67 -5.29,6.26 -8.02,15.26 -8.02,27.19l0 390.81c0,44.99 2.54,78.44 7.43,100.15 4.89,21.52 14.28,39.71 27.97,54.18 36.57,38.92 99.17,58.49 187.58,58.49 88.8,0 151.59,-19.56 188.16,-58.49 13.3,-14.47 22.5,-32.66 27.39,-54.18 4.89,-21.71 7.43,-55.16 7.43,-100.15l0 -390.81c0,-11.93 -2.73,-20.73 -8.02,-26.99 -5.28,-6.06 -14.67,-10.95 -28.36,-14.87l0 -18.78 230.03 0 0 18.78c-13.69,3.91 -23.08,8.8 -28.36,14.87 -5.29,6.07 -8.02,15.06 -8.02,26.99z"/>
            <path class="fil0" d="M1247.57 706.19c-74.91,0 -137.12,22.3 -187,66.7 -59.07,52.42 -88.61,121.08 -88.61,206.17 0,85.09 29.53,153.74 88.61,206.17 49.88,44.4 112.47,66.7 188.17,66.7 75.5,0 137.9,-22.3 187.38,-66.7 29.54,-26.41 52.23,-58.68 67.87,-97.02 13.89,-34.03 20.73,-69.24 20.73,-105.62 0,-89 -29.54,-158.83 -88.61,-209.69 -50.26,-43.81 -113.05,-65.92 -188.55,-66.7zm-0.59 -132.62c136.53,0 244.69,36.97 324.7,110.71 84.5,77.26 126.75,177.21 126.75,299.66 0,74.91 -20.34,144.94 -60.83,210.08 -79.22,126.95 -209.1,190.52 -389.44,190.52 -135.55,0 -243.13,-36.97 -323.14,-110.71 -42.84,-39.51 -75.31,-86.65 -97.41,-141.81 -19.56,-48.5 -29.34,-99.76 -29.34,-153.35 0,-78.43 20.14,-150.02 60.25,-215.16 76.87,-124.4 206.36,-187.58 388.47,-189.93z"/>
            <path class="fil0" d="M751.31 653.38l-93.31 184.07 -16.04 -9.2c0.39,-3.72 0.59,-6.85 0.59,-9.2 0,-12.9 -11.15,-26.99 -33.25,-41.86 -68.07,-47.34 -147.87,-71 -239.61,-71 -40.48,0 -76.28,4.89 -107.38,14.87 -22.49,7.83 -40.68,19.17 -54.77,34.62 -13.88,15.26 -20.92,31.88 -20.92,49.88 0,29.53 17.8,49.68 53.2,60.24 18.39,5.48 57.7,11.15 118.15,17.41l89.97 9.2c53.4,5.67 96.82,13.5 129.87,23.47 33.06,9.98 62.2,23.86 87.83,41.86 26.02,18.78 46.55,43.42 61.62,73.94 15.06,30.71 22.69,63.38 22.69,98.19 0,54.96 -17.8,104.06 -53.21,146.9 -32.07,38.92 -81.96,67.87 -149.63,86.45 -50.47,14.28 -104.45,21.32 -162.15,21.32 -103.48,0 -205.58,-24.84 -306.51,-74.33 -21.32,-9.98 -34.03,-14.87 -38.33,-14.87 -4.89,0 -12.72,4.3 -23.48,12.52l-16.63 -8.41 84.9 -191.88 16.62 8.02c0,3.32 0,5.86 0,7.43 0,17.21 8.21,33.06 24.45,47.53 24.84,22.11 63.38,41.27 115.21,57.31 52.04,16.04 101.32,24.06 147.88,24.06 50.85,0 94.28,-8.61 130.07,-25.82 19.95,-9.58 35.8,-22.29 47.53,-38.14 11.94,-15.84 17.8,-32.47 17.8,-49.68 0,-26.01 -13.89,-44.59 -41.86,-55.74 -19.56,-7.63 -58.88,-14.67 -118.15,-21.12l-88.41 -9.2c-59.07,-6.26 -101.12,-12.13 -125.57,-17.6 -24.45,-5.48 -48.9,-14.47 -73.35,-26.8 -34.82,-17.21 -62.2,-43.03 -81.96,-77.46 -17.99,-31.1 -26.99,-66.7 -26.99,-106.8 0,-66.31 22.69,-121.08 68.26,-164.31 59.66,-57.12 149.24,-85.68 268.75,-85.68 49.88,0 96.63,5.09 139.66,15.26 43.23,10.17 97.02,28.75 161.77,55.94 22.1,8.8 35.6,13.1 40.68,13.1 8.02,0 17.21,-4.3 27.97,-13.1l16.04 8.6z"/>
            <path class="fil0" d="M4154.94 1004.87l-118.15 95.26 0 209.69c0,11.93 2.74,20.92 8.21,27.18 5.48,6.46 14.87,11.15 28.17,14.67l0 18.78 -244.11 0 0 -18.78c13.69,-3.91 23.08,-8.8 28.36,-14.87 5.29,-6.06 8.02,-15.06 8.02,-26.99l0 -662.12c0,-11.54 -2.74,-20.34 -8.02,-26.41 -5.28,-6.06 -14.67,-11.15 -28.36,-14.87l0 -18.78 244.11 0 0 18.78c-13.69,3.52 -23.08,8.22 -28.37,14.67 -5.28,6.26 -8.02,15.06 -8.02,26.41l0 273.25 319.62 -262.1c15.06,-12.33 22.69,-22.11 22.69,-29.34 0,-10.96 -11.14,-18.78 -33.44,-22.89l0 -18.78 322.54 0 0 18.78c-13.3,2.74 -22.88,5.67 -28.75,9.2 -5.67,3.32 -22.3,16.43 -49.88,38.92l-44.01 36.58 -266.22 213.6 301.62 362.65c27.97,33.84 48.12,55.55 60.44,65.33 12.52,9.78 27.97,16.24 46.75,19.37l0 18.39 -305.53 0 0 -18.78c20.14,-4.3 30.32,-11.54 30.32,-21.71 0,-5.48 -9.2,-19.56 -27.58,-42.45l-230.42 -282.65z"/>
            <path class="fil0" d="M6927.52 1051.23l0 259.17c0,11.54 2.74,20.34 8.22,26.6 5.48,6.46 14.87,11.15 28.17,14.67l0 18.78 -244.11 0 0 -18.78c13.69,-3.91 23.08,-8.8 28.36,-14.87 5.29,-6.06 8.02,-14.87 8.02,-26.4l0 -662.12c0,-11.93 -2.73,-20.92 -8.02,-26.99 -5.28,-6.06 -14.67,-11.15 -28.36,-14.87l0 -18.78 489.79 0c59.66,0 106.99,3.52 142.01,10.37 35.01,6.84 65.52,18.97 91.54,36.18 30.12,19.95 52.61,46.94 67.67,80.98 14.09,32.86 21.13,68.07 21.13,105.62 0,127.92 -71.01,202.64 -212.81,224.55l151.98 215.36c26.6,37.75 46.16,62 58.69,72.96 12.52,10.75 27.58,16.82 45.57,17.99l0 18.78 -283.03 0 0 -18.78c19.36,-3.13 29.14,-9.97 29.14,-20.54 0,-6.85 -8.99,-23.48 -26.99,-49.88l-159.42 -230.03 -207.53 0zm0 -129.1l263.87 0c38.92,0 66.5,-1.18 82.54,-3.52 16.04,-2.15 30.91,-7.04 44.21,-14.28 29.15,-15.65 43.62,-44.01 43.62,-84.89 0,-40.88 -14.47,-69.24 -43.62,-84.89 -13.69,-7.63 -28.37,-12.52 -43.81,-14.67 -15.45,-2.15 -43.23,-3.13 -82.93,-3.13l-263.87 0 0 205.39z"/>
            <path class="fil0" d="M7831.56 1026.59l0 214.77 502.11 0c11.54,0 20.34,-2.74 26.41,-8.02 6.06,-5.28 11.15,-14.67 14.87,-28.36l18.78 0 0 201.86 -18.78 0c-3.72,-13.69 -8.8,-23.08 -14.87,-28.36 -6.06,-5.29 -14.87,-8.02 -26.41,-8.02l-709.84 0 0 -18.78c13.69,-3.91 23.08,-8.8 28.36,-14.87 5.29,-6.06 8.02,-15.06 8.02,-26.99l0 -661.53c0,-11.93 -2.73,-20.92 -8.02,-26.99 -5.28,-6.06 -14.67,-11.15 -28.36,-14.87l0 -18.78 695.75 0c11.54,0 20.34,-2.73 26.41,-8.02 6.06,-5.48 11.15,-14.87 14.87,-28.36l18.78 0 0 201.86 -18.78 0c-3.72,-13.5 -8.81,-22.89 -14.87,-28.36 -6.06,-5.28 -14.87,-8.02 -26.21,-8.02l-488.22 0 0 185.43 316.88 0c11.34,0 20.14,-2.74 26.21,-8.02 6.06,-5.29 11.15,-14.67 14.87,-28.37l18.78 0 0 197.17 -18.78 0c-3.72,-13.3 -8.81,-22.69 -14.87,-28.17 -6.06,-5.47 -14.87,-8.21 -26.21,-8.21l-316.88 0z"/>
            <path class="fil0" d="M9078.33 1169.77l-352.86 0 -53.2 110.52c-7.24,15.45 -10.96,27.38 -10.96,36.18 0,17.02 12.91,28.76 38.53,35.21l0 18.78 -258.78 0 0 -18.78c15.25,-3.13 26.99,-8.41 35.01,-16.04 8.02,-7.63 17.21,-22.5 27.39,-44.6l287.72 -600.89c9.2,-19.17 13.69,-34.43 13.69,-45.96 0,-17.61 -10.95,-30.13 -33.25,-37.76l0 -18.78 277.36 0 0 18.78c-22.69,6.46 -33.84,17.8 -33.84,33.84 0,10.96 3.52,23.67 10.75,37.75l297.71 602.65c12.71,25.62 23.67,43.03 33.25,52.42 9.58,9.39 22.3,15.46 38.34,18.58l0 18.78 -288.71 0 0 -18.78c25.24,-4.3 37.76,-16.04 37.76,-35.6 0,-8.22 -3.91,-20.15 -11.54,-35.8l-54.38 -110.52zm-48.9 -106.8l-125.58 -276.39 -127.92 276.39 253.5 0z"/>
            <path class="fil0" d="M9599.08 834.51l0 475.32c0,11.93 2.74,20.92 8.02,26.99 5.28,6.07 14.67,10.96 28.36,14.87l0 18.78 -228.85 0 0 -18.78c13.69,-3.91 23.08,-8.8 28.36,-14.87 5.29,-6.06 8.02,-15.06 8.02,-26.99l0 -662.12c0,-11.54 -2.74,-20.34 -8.02,-26.41 -5.28,-6.06 -14.67,-11.15 -28.36,-14.87l0 -18.78 265.43 0 0 18.78c-16.44,4.11 -24.45,12.91 -24.45,26.41 0,9.19 5.28,19.16 15.84,30.31l433.26 448.52 0 -463.97c0,-11.54 -2.74,-20.34 -8.02,-26.41 -5.28,-6.06 -14.67,-11.15 -28.36,-14.87l0 -18.78 228.85 0 0 18.78c-13.69,3.72 -23.08,8.8 -28.36,14.87 -5.28,6.07 -8.01,14.87 -8.01,26.41l0 662.12c0,11.93 2.73,20.92 8.01,26.99 5.29,6.07 14.67,10.96 28.36,14.87l0 18.78 -246.07 0 0 -18.78c16.04,-3.52 24.06,-11.74 24.06,-24.65 0,-7.63 -9.39,-20.92 -27.97,-40.1l-440.11 -452.43z"/>
            <path class="fil0" d="M5655.28 0c529.53,0 958.8,429.27 958.8,958.8 0,529.53 -429.27,958.8 -958.8,958.8 -529.53,0 -958.8,-429.27 -958.8,-958.8 0,-529.53 429.27,-958.8 958.8,-958.8z"/>
            <path class="fil1" d="M5655.28 200.3c418.91,0 758.49,339.59 758.49,758.5 0,418.9 -339.58,758.49 -758.49,758.49 -418.9,0 -758.5,-339.59 -758.5,-758.49 0,-418.91 339.59,-758.5 758.5,-758.5z"/>
            <path class="fil2" d="M5655.27 333.63c345.27,0 625.16,279.89 625.16,625.15 0,345.27 -279.89,625.16 -625.16,625.16 -345.26,0 -625.16,-279.89 -625.16,-625.16 0,-345.26 279.89,-625.15 625.16,-625.15z"/>
            <path class="fil3" d="M6191.16 1280.86c-109.39,181.6 -308.44,303.09 -535.88,303.09 -345.27,0 -625.16,-279.9 -625.16,-625.17 0,-117.8 32.6,-227.98 89.25,-322.04 -62.02,131.97 -34.07,287.1 95.93,384.69 129.99,97.59 335.78,76.15 439.98,-62.64 104.2,-138.79 309.97,-160.24 439.98,-62.64 130,97.6 157.94,252.75 95.91,384.72z"/>
            <g>
                <path class="fil4" d="M5495.27 1563.27l-23.23 -757.08 -39.97 0 -22.33 727.66c27.55,11.78 56.11,21.65 85.53,29.42z"/>
                <path class="fil4" d="M5452.05 909.05c-88.99,-10.68 -123.33,-55.62 -125.07,-125.07 -1.59,-63.46 16.82,-130.89 52.79,-173.86 46.85,-55.97 99.36,-55.04 145.53,1.2 35.32,43.02 53.37,109.79 51.8,172.66 -1.74,69.45 -36.07,114.38 -125.06,125.07z"/>
            </g>
            <g>
                <path class="fil4" d="M5900.82 383.71l-22.33 727.68 -39.96 0 -23.23 -757.09c29.41,7.77 57.98,17.62 85.53,29.4z"/>
                <path class="fil4" d="M5858.51 1008.52c-88.99,10.68 -123.33,55.63 -125.06,125.07 -1.58,63.44 16.82,163.59 52.79,206.57 2.57,3.05 5.15,5.94 7.74,8.66 2.36,-63.49 -2.14,-142.09 -4.68,-212.04 1.26,-19.45 37.51,-19.24 39.02,8.92 3.62,77.84 9.32,145.28 20.65,184.57 8.32,28.88 10.81,28.82 19.11,-0.04 11.32,-39.29 17.02,-106.72 20.63,-184.54 1.52,-28.16 37.77,-28.37 39.03,-8.92 -2.55,69.96 -7.05,148.57 -4.68,212.08 2.93,-3.08 5.84,-6.39 8.73,-9.9 35.31,-43.01 53.37,-142.51 51.8,-205.37 -1.73,-69.45 -36.08,-114.39 -125.07,-125.07z"/>
            </g>
        </g>
    </g>
</svg>
